<svg width="40" height="40" viewBox="0 0 40 40" fill="none" xmlns="http://www.w3.org/2000/svg">
<g clip-path="url(#clip0_349_751)">
<path d="M32.3405 27.6106H11.4032C10.9344 27.6106 10.5544 27.2306 10.5544 26.7619V16.9819C10.5544 16.5132 10.9344 16.1332 11.4032 16.1332H32.3405C32.8092 16.1332 33.1892 16.5132 33.1892 16.9819V26.7619C33.1894 27.2306 32.8094 27.6106 32.3405 27.6106Z" fill="url(#paint0_linear_349_751)"/>
<path d="M10.5775 26.409L11.7791 27.6106H32.3405C32.8092 27.6106 33.1892 27.2307 33.1892 26.7619V16.9819C33.1892 16.5132 32.8092 16.1331 32.3405 16.1331H11.4032C10.9344 16.1331 10.5544 16.5131 10.5544 16.9819V26.3596L10.5775 26.409Z" fill="url(#paint1_linear_349_751)"/>
<path d="M31.0675 26.3376H10.1302C9.66149 26.3376 9.28149 25.9576 9.28149 25.4889V15.7088C9.28149 15.24 9.66149 14.86 10.1302 14.86H31.0675C31.5363 14.86 31.9163 15.24 31.9163 15.7088V25.4888C31.9163 25.9576 31.5363 26.3376 31.0675 26.3376Z" fill="url(#paint2_linear_349_751)"/>
<path d="M9.30438 25.136L10.506 26.3376H31.0674C31.5361 26.3376 31.9161 25.9576 31.9161 25.4889V15.7088C31.9161 15.24 31.5361 14.86 31.0674 14.86H10.1302C9.66149 14.86 9.28149 15.24 9.28149 15.7088V25.0865L9.30438 25.136Z" fill="url(#paint3_linear_349_751)"/>
<path d="M29.7943 25.0645H8.85705C8.3883 25.0645 8.0083 24.6845 8.0083 24.2157V14.4358C8.0083 13.967 8.3883 13.587 8.85705 13.587H29.7943C30.2631 13.587 30.6431 13.967 30.6431 14.4358V24.2157C30.6431 24.6845 30.2631 25.0645 29.7943 25.0645Z" fill="url(#paint4_linear_349_751)"/>
<path d="M8.03135 23.8628L9.23298 25.0645H29.7943C30.2631 25.0645 30.6431 24.6845 30.6431 24.2157V14.4358C30.6431 13.967 30.2631 13.587 29.7943 13.587H8.85705C8.3883 13.587 8.0083 13.967 8.0083 14.4358V23.8135L8.03135 23.8628Z" fill="url(#paint5_linear_349_751)"/>
<path d="M28.5967 23.8668H7.65942C7.19067 23.8668 6.81067 23.4868 6.81067 23.0181V13.2381C6.81067 12.7694 7.19067 12.3894 7.65942 12.3894H28.5967C29.0655 12.3894 29.4455 12.7694 29.4455 13.2381V23.018C29.4455 23.4868 29.0655 23.8668 28.5967 23.8668Z" fill="url(#paint6_linear_349_751)"/>
<path d="M28.1669 14.8158C27.5528 14.784 27.0508 14.2808 27.019 13.6667C27.0119 13.5308 27.0278 13.3998 27.0622 13.2764H9.194C9.22845 13.3997 9.24439 13.5308 9.23728 13.6666C9.20533 14.2808 8.70338 14.784 8.08932 14.8158C7.87924 14.8267 7.68025 14.784 7.50439 14.7004V21.5555C7.68041 21.4719 7.87955 21.4292 8.08971 21.4401C8.70385 21.4722 9.20556 21.9756 9.23728 22.5897C9.24423 22.7254 9.22845 22.8563 9.194 22.9796H27.0622C27.0278 22.8564 27.0119 22.7254 27.0189 22.5897C27.0507 21.9756 27.5524 21.4722 28.1665 21.4401C28.3767 21.4291 28.5758 21.4718 28.7518 21.5555V14.7004C28.576 14.784 28.3769 14.8267 28.1669 14.8158Z" fill="url(#paint7_linear_349_751)"/>
<path d="M18.1279 21.0668C19.7511 21.0668 21.067 19.751 21.067 18.1278C21.067 16.5046 19.7511 15.1887 18.1279 15.1887C16.5047 15.1887 15.1888 16.5046 15.1888 18.1278C15.1888 19.751 16.5047 21.0668 18.1279 21.0668Z" fill="url(#paint8_linear_349_751)"/>
<path d="M14.0887 14.3561H9.57495V15.6546H14.0887V14.3561Z" fill="url(#paint9_linear_349_751)"/>
<path d="M26.6809 20.6015H22.1671V21.9H26.6809V20.6015Z" fill="url(#paint10_linear_349_751)"/>
<path d="M38.8474 9.06592C38.0384 8.76991 37.1528 9.1078 36.7319 9.82577C35.4048 7.6353 33.6529 5.71882 31.5427 4.17031C28.1612 1.68922 24.151 0.377815 19.9457 0.377815C15.7403 0.377815 11.7301 1.68922 8.34866 4.17031C5.03687 6.6003 2.60594 9.93592 1.31852 13.8162C1.01328 14.7363 1.51172 15.7297 2.4318 16.0349C3.35218 16.3403 4.34531 15.8417 4.65046 14.9216C5.70726 11.7364 7.70421 8.99733 10.4254 7.00062C13.2004 4.96445 16.4924 3.88812 19.9457 3.88812C23.3989 3.88812 26.6908 4.96445 29.4659 7.00069C31.0865 8.18975 32.4501 9.64225 33.5113 11.2954C32.7038 11.174 31.8952 11.6319 31.6038 12.4286C31.2706 13.339 31.7386 14.347 32.649 14.6801L36.3038 16.0174C36.3125 16.0206 36.3214 16.0227 36.3302 16.0258C36.3609 16.0365 36.3918 16.0461 36.423 16.0551C36.4398 16.0599 36.4564 16.0648 36.4731 16.0692C36.5047 16.0772 36.5365 16.084 36.5685 16.0904C36.5848 16.0936 36.6012 16.0973 36.6174 16.1001C36.6514 16.1058 36.6856 16.1097 36.7201 16.1136C36.7341 16.1151 36.748 16.1174 36.762 16.1185C36.8099 16.1225 36.8581 16.1247 36.9066 16.1247C36.9066 16.1247 36.9066 16.1247 36.9066 16.1247H36.9067C36.9523 16.1247 36.9977 16.1229 37.0427 16.1193C37.0534 16.1185 37.0641 16.1167 37.0749 16.1157C37.1096 16.1123 37.1442 16.1087 37.1785 16.1033C37.1918 16.1011 37.205 16.098 37.2184 16.0956C37.2503 16.0898 37.2821 16.0838 37.3136 16.0763C37.3284 16.0728 37.343 16.0683 37.3577 16.0643C37.3876 16.0564 37.4172 16.0483 37.4464 16.0388C37.4508 16.0374 37.4552 16.0365 37.4596 16.0351C37.4683 16.0322 37.4764 16.0282 37.4851 16.0252C37.5238 16.0116 37.562 15.9969 37.5996 15.9808C37.6158 15.9739 37.6319 15.9669 37.6477 15.9596C37.6844 15.9425 37.7204 15.924 37.7559 15.9044C37.7671 15.8982 37.7788 15.8926 37.7899 15.8862C37.8326 15.8615 37.874 15.8343 37.9145 15.806C37.9304 15.7949 37.9455 15.7831 37.9608 15.7715C37.9878 15.7512 38.0144 15.7303 38.0403 15.7084C38.0545 15.6964 38.0686 15.6844 38.0824 15.6719C38.1119 15.6452 38.1405 15.6174 38.1683 15.5887C38.1759 15.5808 38.1842 15.5732 38.1917 15.5651C38.2279 15.5262 38.2625 15.4856 38.2952 15.4433C38.2975 15.4403 38.2995 15.4372 38.3018 15.4342C38.3309 15.3959 38.3586 15.3561 38.3848 15.3151C38.3917 15.304 38.3984 15.2929 38.4051 15.2817C38.4253 15.2484 38.4445 15.2144 38.4627 15.1795C38.4701 15.1651 38.4776 15.1508 38.4846 15.1362C38.5005 15.1035 38.5151 15.0701 38.5291 15.036C38.5355 15.0202 38.5425 15.0047 38.5485 14.9887C38.5505 14.9833 38.5531 14.978 38.5552 14.9725L39.8925 11.3177C40.2257 10.4072 39.7577 9.39905 38.8474 9.06592Z" fill="url(#paint11_linear_349_751)"/>
<path d="M1.15256 30.9339C1.96162 31.2299 2.84717 30.892 3.2681 30.1741C4.59513 32.3645 6.34708 34.281 8.45731 35.8295C11.8387 38.3106 15.8489 39.6222 20.0543 39.6222C24.2597 39.6222 28.2699 38.3107 31.6513 35.8295C34.9631 33.3995 37.3941 30.064 38.6815 26.1836C38.9868 25.2635 38.4883 24.2702 37.5683 23.965C36.6479 23.6596 35.6548 24.1582 35.3496 25.0782C34.2928 28.2635 32.2959 31.0025 29.5746 32.9992C26.7996 35.0354 23.5077 36.1117 20.0544 36.1117C16.6011 36.1117 13.3093 35.0355 10.5342 32.9992C8.91356 31.8102 7.54997 30.3577 6.4888 28.7046C7.2963 28.8259 8.10481 28.3681 8.3963 27.5713C8.7295 26.661 8.26145 25.6529 7.35106 25.3198L3.69631 23.9825C3.68756 23.9793 3.67865 23.9772 3.6699 23.9742C3.6392 23.9635 3.60826 23.9538 3.57701 23.9448C3.56029 23.94 3.54365 23.9351 3.52693 23.9307C3.49537 23.9227 3.46357 23.9159 3.43154 23.9096C3.41521 23.9064 3.39889 23.9026 3.38264 23.8999C3.34865 23.8942 3.31443 23.8902 3.27998 23.8864C3.266 23.8849 3.25201 23.8825 3.23803 23.8814C3.19014 23.8775 3.14193 23.8752 3.0935 23.8752C3.0935 23.8752 3.0935 23.8752 3.09342 23.8752H3.09334C3.04779 23.8752 3.0024 23.8771 2.9574 23.8806C2.94662 23.8814 2.93592 23.8832 2.92514 23.8843C2.89045 23.8876 2.85584 23.8912 2.82154 23.8967C2.80826 23.8988 2.79506 23.9019 2.7817 23.9043C2.74975 23.9101 2.71795 23.9161 2.68647 23.9236C2.6717 23.9271 2.65709 23.9317 2.64232 23.9357C2.61256 23.9435 2.58287 23.9517 2.55365 23.9611C2.54928 23.9625 2.5449 23.9635 2.54045 23.9649C2.53178 23.9678 2.52365 23.9718 2.51498 23.9747C2.47631 23.9883 2.43811 24.003 2.40045 24.0192C2.38428 24.026 2.36818 24.033 2.3524 24.0403C2.31568 24.0575 2.27967 24.076 2.2442 24.0956C2.23295 24.1018 2.22123 24.1073 2.21014 24.1137C2.16748 24.1385 2.12608 24.1656 2.08553 24.1939C2.06967 24.205 2.05459 24.2168 2.03928 24.2284C2.01225 24.2487 1.98569 24.2696 1.95975 24.2915C1.94553 24.3035 1.93147 24.3156 1.91764 24.3281C1.88811 24.3547 1.85951 24.3825 1.83178 24.4112C1.82412 24.4192 1.81584 24.4267 1.80834 24.4349C1.77217 24.4737 1.73756 24.5143 1.70483 24.5567C1.70256 24.5596 1.70053 24.5628 1.69826 24.5657C1.66912 24.604 1.64147 24.6439 1.6153 24.6849C1.60834 24.6959 1.6017 24.7071 1.59498 24.7182C1.57475 24.7515 1.55561 24.7855 1.5374 24.8204C1.52998 24.8348 1.52248 24.8491 1.51545 24.8637C1.49959 24.8964 1.48498 24.9299 1.471 24.9639C1.46451 24.9797 1.45756 24.9953 1.45155 25.0112C1.44951 25.0167 1.44694 25.0219 1.44491 25.0274L0.107408 28.6824C-0.225795 29.5927 0.242173 30.6009 1.15256 30.9339Z" fill="url(#paint12_radial_349_751)"/>
</g>
<defs>
<linearGradient id="paint0_linear_349_751" x1="10.5542" y1="21.8723" x2="33.1886" y2="21.8723" gradientUnits="userSpaceOnUse">
<stop stop-color="#61DB99"/>
<stop offset="1" stop-color="#009E74"/>
</linearGradient>
<linearGradient id="paint1_linear_349_751" x1="22.8945" y1="25.332" x2="21.707" y2="21.016" gradientUnits="userSpaceOnUse">
<stop stop-color="#009E74" stop-opacity="0"/>
<stop offset="1" stop-color="#009E74"/>
</linearGradient>
<linearGradient id="paint2_linear_349_751" x1="9.28124" y1="20.5992" x2="31.9156" y2="20.5992" gradientUnits="userSpaceOnUse">
<stop stop-color="#61DB99"/>
<stop offset="1" stop-color="#009E74"/>
</linearGradient>
<linearGradient id="paint3_linear_349_751" x1="21.4807" y1="24.5798" x2="20.698" y2="20.8309" gradientUnits="userSpaceOnUse">
<stop stop-color="#009E74" stop-opacity="0"/>
<stop offset="1" stop-color="#009E74"/>
</linearGradient>
<linearGradient id="paint4_linear_349_751" x1="8.0081" y1="19.3262" x2="30.6425" y2="19.3262" gradientUnits="userSpaceOnUse">
<stop stop-color="#61DB99"/>
<stop offset="1" stop-color="#009E74"/>
</linearGradient>
<linearGradient id="paint5_linear_349_751" x1="21.0285" y1="25.8159" x2="17.3885" y2="11.403" gradientUnits="userSpaceOnUse">
<stop stop-color="#009E74" stop-opacity="0"/>
<stop offset="1" stop-color="#009E74"/>
</linearGradient>
<linearGradient id="paint6_linear_349_751" x1="6.81051" y1="18.1286" x2="29.4449" y2="18.1286" gradientUnits="userSpaceOnUse">
<stop stop-color="#A7F3CE"/>
<stop offset="1" stop-color="#61DB99"/>
</linearGradient>
<linearGradient id="paint7_linear_349_751" x1="12.2155" y1="12.2162" x2="26.6183" y2="26.619" gradientUnits="userSpaceOnUse">
<stop stop-color="#61DB99"/>
<stop offset="1" stop-color="#009E74"/>
</linearGradient>
<linearGradient id="paint8_linear_349_751" x1="16.3785" y1="16.3793" x2="20.6396" y2="20.6404" gradientUnits="userSpaceOnUse">
<stop stop-color="#A7F3CE"/>
<stop offset="1" stop-color="#61DB99"/>
</linearGradient>
<linearGradient id="paint9_linear_349_751" x1="10.6091" y1="13.7834" x2="13.5879" y2="16.7621" gradientUnits="userSpaceOnUse">
<stop stop-color="#A7F3CE"/>
<stop offset="1" stop-color="#61DB99"/>
</linearGradient>
<linearGradient id="paint10_linear_349_751" x1="23.2006" y1="20.0284" x2="26.1793" y2="23.0071" gradientUnits="userSpaceOnUse">
<stop stop-color="#A7F3CE"/>
<stop offset="1" stop-color="#61DB99"/>
</linearGradient>
<linearGradient id="paint11_linear_349_751" x1="1.22874" y1="8.25199" x2="39.9991" y2="8.25199" gradientUnits="userSpaceOnUse">
<stop stop-color="#FFB92D"/>
<stop offset="1" stop-color="#F59500"/>
</linearGradient>
<radialGradient id="paint12_radial_349_751" cx="0" cy="0" r="1" gradientUnits="userSpaceOnUse" gradientTransform="translate(20.258 20.1256) rotate(180) scale(19.8717 19.8717)">
<stop stop-color="#BE3F45"/>
<stop offset="0.317" stop-color="#C14046"/>
<stop offset="0.538" stop-color="#CA4148"/>
<stop offset="0.729" stop-color="#D9444B"/>
<stop offset="0.902" stop-color="#EF4950"/>
<stop offset="1" stop-color="#FF4C54"/>
</radialGradient>
<clipPath id="clip0_349_751">
<rect width="40" height="40" fill="white"/>
</clipPath>
</defs>
</svg>
