<svg width="20" height="16" viewBox="0 0 20 16" fill="none" xmlns="http://www.w3.org/2000/svg">
<path d="M15.1562 12H16.5C16.75 12 17 11.7812 17 11.5V10.1875C17 9.96875 16.8438 9.65625 16.6875 9.46875L9.46875 2.25L7.21875 4.5L14.4375 11.7188C14.625 11.875 14.9375 12 15.1562 12ZM6.5 3.78125L8.75 1.53125L7.4375 0.21875C7.3125 0.125 7.09375 0.03125 6.90625 0.03125C6.75 0.03125 6.5 0.125 6.375 0.21875L5.21875 1.40625C5.09375 1.53125 5 1.78125 5 1.9375C5 2.125 5.09375 2.34375 5.21875 2.46875L6.5 3.78125ZM4.25 13.25H4.75C4.875 13.25 5 13.1562 5 13V12.5C5.71875 12.5 6.3125 11.875 6.3125 11.0938C6.3125 10.4688 5.90625 9.90625 5.34375 9.75L3.9375 9.3125C3.75 9.28125 3.65625 9.125 3.65625 8.9375C3.65625 8.6875 3.8125 8.5 4.03125 8.5H4.90625C5.03125 8.53125 5.1875 8.5625 5.3125 8.625C5.34375 8.65625 5.40625 8.6875 5.4375 8.6875C5.5 8.6875 5.5625 8.65625 5.625 8.59375L5.96875 8.25C6.03125 8.21875 6.0625 8.125 6.0625 8.0625C6.0625 8 6.03125 7.90625 5.96875 7.875C5.71875 7.6875 5.28125 7.53125 5 7.53125V7C5 6.875 4.875 6.75 4.75 6.75H4.25C4.09375 6.75 4 6.875 4 7V7.53125C3.25 7.53125 2.65625 8.15625 2.65625 8.9375C2.65625 9.5625 3.0625 10.0938 3.625 10.2812L5.03125 10.7188C5.21875 10.75 5.3125 10.9062 5.3125 11.0938C5.3125 11.3438 5.15625 11.5 4.9375 11.5H4.0625C3.9375 11.5 3.78125 11.4688 3.6875 11.4062C3.625 11.375 3.5625 11.3438 3.53125 11.3438C3.46875 11.3438 3.40625 11.375 3.34375 11.4375L3 11.7812C2.9375 11.8125 2.90625 11.9062 2.90625 11.9688C2.90625 12.0312 2.9375 12.125 3 12.1562C3.25 12.3438 3.6875 12.5 4 12.5V13C4 13.1562 4.09375 13.25 4.25 13.25ZM8 9.5H10.8438L9.34375 8H8C7.71875 8 7.5 8.25 7.5 8.5V9C7.5 9.28125 7.71875 9.5 8 9.5ZM7.5 11.5C7.5 11.7812 7.71875 12 8 12H13.3438L11.8438 10.5H8C7.71875 10.5 7.5 10.75 7.5 11V11.5ZM19 4H12.6562L14.1562 5.5H18.5V14.5H1.5V5.5H6.84375L6.5 5.1875L5.8125 4.5L5.34375 4H1C0.4375 4 0 4.46875 0 5V15C0 15.5625 0.4375 16 1 16H19C19.5312 16 20 15.5625 20 15V5C20 4.46875 19.5312 4 19 4Z" fill="#7A8A98"/>
</svg>
