<svg width="40" height="40" viewBox="0 0 40 40" fill="none" xmlns="http://www.w3.org/2000/svg">
<g clip-path="url(#clip0_349_290)">
<path d="M35.2566 36.6762H4.74344C3.11719 36.6762 1.79883 35.3579 1.79883 33.7316V8.32383C1.79883 6.69758 3.11719 5.37922 4.74344 5.37922H35.2566C36.8828 5.37922 38.2012 6.69758 38.2012 8.32383V33.7316C38.2012 35.3579 36.8828 36.6762 35.2566 36.6762Z" fill="url(#paint0_linear_349_290)"/>
<path d="M34.5761 35.9783H5.42395C3.87021 35.9783 2.6106 34.7187 2.6106 33.1649V8.89039C2.6106 7.33664 3.87013 6.07703 5.42395 6.07703H34.5761C36.1298 6.07703 37.3894 7.33656 37.3894 8.89039V33.165C37.3895 34.7187 36.1299 35.9783 34.5761 35.9783Z" fill="url(#paint1_linear_349_290)"/>
<path d="M36.2281 13.5977L28.8887 0.885545C28.3999 0.0387488 27.317 -0.251407 26.4702 0.237577L3.32971 13.5977H36.2281Z" fill="url(#paint2_linear_349_290)"/>
<path d="M1.79883 23.8288H38.2012V14.1873C38.2012 12.9703 37.2147 11.9838 35.9977 11.9838H4.00227C2.78531 11.9838 1.79883 12.9703 1.79883 14.1873V23.8288Z" fill="url(#paint3_linear_349_290)"/>
<path d="M1.79883 20.2027V33.7316C1.79883 35.3579 3.11719 36.6763 4.74352 36.6763H35.2566C36.8828 36.6763 38.2012 35.358 38.2012 33.7317V20.2027C38.2012 19.1983 37.3869 18.384 36.3824 18.384H3.61758C2.61313 18.384 1.79883 19.1982 1.79883 20.2027Z" fill="url(#paint4_linear_349_290)"/>
<path d="M32.7094 13.2248V36.6764H35.2566C36.8829 36.6764 38.2012 35.3581 38.2012 33.7318V18.7166L32.7094 13.2248Z" fill="url(#paint5_linear_349_290)"/>
<path d="M30.2263 39.9779L4.67266 37.0101C3.03453 36.8197 1.79883 35.4323 1.79883 33.7832V8.10429C1.79883 8.65617 2.21234 9.12039 2.76039 9.18406L30.9758 12.4611C32.6139 12.6514 33.8496 14.0388 33.8496 15.688V36.7511C33.8496 38.6937 32.1559 40.2021 30.2263 39.9779Z" fill="url(#paint6_linear_349_290)"/>
<path d="M30.2263 34.8487L4.67266 31.8809C3.03453 31.6905 1.79883 30.3031 1.79883 28.654V33.7832C1.79883 35.4323 3.03453 36.8198 4.67266 37.0101L30.2263 39.9779C32.1559 40.202 33.8497 38.6937 33.8497 36.751V31.6218C33.8496 33.5645 32.1559 35.0727 30.2263 34.8487Z" fill="url(#paint7_linear_349_290)"/>
<path d="M4.08989 12.1067C4.06848 12.1067 4.04676 12.1055 4.02497 12.1031L2.85559 11.9745C2.53262 11.939 2.29958 11.6485 2.33512 11.3256C2.37067 11.0027 2.66137 10.7699 2.98403 10.8052L4.1534 10.9337C4.47637 10.9693 4.70942 11.2598 4.67387 11.5827C4.64075 11.8838 4.3859 12.1067 4.08989 12.1067Z" fill="url(#paint8_linear_349_290)"/>
<path d="M28.1183 38.0399C28.0936 38.0399 28.0684 38.0383 28.0433 38.0352L25.7706 37.7462C25.4484 37.7052 25.2202 37.4107 25.2613 37.0884C25.3023 36.7662 25.5967 36.5394 25.9191 36.5791L28.1918 36.868C28.514 36.909 28.7422 37.2035 28.7011 37.5259C28.6632 37.8229 28.4101 38.0399 28.1183 38.0399ZM30.3553 37.7487C30.1347 37.7487 29.9231 37.624 29.8228 37.411C29.6843 37.1172 29.8103 36.7666 30.1042 36.6283C30.701 36.347 31.1498 35.8806 31.3357 35.3484C31.4428 35.0419 31.7784 34.8802 32.085 34.987C32.3916 35.0941 32.5535 35.4296 32.4464 35.7363C32.1529 36.5768 31.4992 37.2716 30.6056 37.6925C30.5246 37.7306 30.4394 37.7487 30.3553 37.7487ZM23.5729 37.462C23.5482 37.462 23.5231 37.4603 23.4979 37.4572L21.2252 37.1682C20.903 37.1273 20.6748 36.8327 20.7159 36.5104C20.7569 36.1882 21.0513 35.9613 21.3737 36.0011L23.6464 36.2901C23.9686 36.331 24.1968 36.6255 24.1557 36.9479C24.1178 37.2448 23.8645 37.462 23.5729 37.462ZM19.0275 36.8839C19.0028 36.8839 18.9777 36.8823 18.9525 36.8791L16.6798 36.5902C16.3576 36.5492 16.1294 36.2547 16.1705 35.9323C16.2115 35.6102 16.506 35.3822 16.8283 35.423L19.101 35.712C19.4232 35.753 19.6514 36.0475 19.6103 36.3698C19.5724 36.6668 19.3192 36.8839 19.0275 36.8839ZM14.482 36.3059C14.4573 36.3059 14.4322 36.3042 14.407 36.3011L12.1342 36.012C11.8119 35.971 11.5838 35.6766 11.6249 35.3542C11.6659 35.0319 11.9605 34.8051 12.2827 34.8449L14.5555 35.134C14.8777 35.175 15.1059 35.4695 15.0648 35.7918C15.027 36.0889 14.7738 36.3059 14.482 36.3059ZM9.93658 35.7278C9.91189 35.7278 9.88681 35.7262 9.86158 35.723L7.58877 35.434C7.2665 35.393 7.03838 35.0985 7.07947 34.7762C7.12048 34.4539 7.41509 34.2269 7.73728 34.2669L10.0101 34.5559C10.3324 34.597 10.5605 34.8914 10.5194 35.2137C10.4816 35.5109 10.2284 35.7278 9.93658 35.7278ZM32.0231 33.8548C31.6981 33.8548 31.4348 33.5915 31.4348 33.2666V30.9755C31.4348 30.6506 31.6981 30.3873 32.0231 30.3873C32.348 30.3873 32.6113 30.6506 32.6113 30.9755V33.2666C32.6113 33.5915 32.348 33.8548 32.0231 33.8548ZM32.0231 29.2728C31.6981 29.2728 31.4348 29.0095 31.4348 28.6846V26.3936C31.4348 26.0687 31.6981 25.8054 32.0231 25.8054C32.348 25.8054 32.6113 26.0687 32.6113 26.3936V28.6846C32.6113 29.0094 32.348 29.2728 32.0231 29.2728ZM32.0231 24.6908C31.6981 24.6908 31.4348 24.4275 31.4348 24.1026V21.8116C31.4348 21.4866 31.6981 21.2234 32.0231 21.2234C32.348 21.2234 32.6113 21.4866 32.6113 21.8116V24.1026C32.6113 24.4274 32.348 24.6908 32.0231 24.6908ZM32.0231 20.1087C31.6981 20.1087 31.4348 19.8455 31.4348 19.5205V17.2295C31.4348 16.9046 31.6981 16.6413 32.0231 16.6413C32.348 16.6413 32.6113 16.9046 32.6113 17.2295V19.5205C32.6113 19.8454 32.348 20.1087 32.0231 20.1087ZM31.2004 15.7615C31.0552 15.7615 30.9096 15.708 30.7959 15.6002C30.3599 15.1871 29.7548 14.9239 29.092 14.859L29.0764 14.8573C28.7534 14.8226 28.5197 14.5325 28.5545 14.2095C28.5893 13.8865 28.8793 13.6527 29.2023 13.6877L29.2123 13.6887C30.1285 13.7785 30.9802 14.1543 31.6052 14.7462C31.841 14.9697 31.851 15.342 31.6276 15.5779C31.5118 15.6998 31.3563 15.7615 31.2004 15.7615ZM26.8627 14.6104C26.8413 14.6104 26.8195 14.6091 26.7977 14.6068L24.5205 14.3564C24.1976 14.3209 23.9645 14.0304 24 13.7075C24.0356 13.3846 24.3263 13.1522 24.6489 13.187L26.9262 13.4374C27.2491 13.473 27.4822 13.7634 27.4466 14.0863C27.4136 14.3874 27.1587 14.6104 26.8627 14.6104ZM22.3082 14.1096C22.2868 14.1096 22.2651 14.1084 22.2433 14.106L19.9659 13.8556C19.6431 13.8201 19.4099 13.5296 19.4455 13.2067C19.4809 12.8837 19.7721 12.6511 20.0944 12.6862L22.3717 12.9366C22.6946 12.9722 22.9277 13.2627 22.8922 13.5855C22.8591 13.8867 22.6042 14.1096 22.3082 14.1096ZM17.7535 13.6089C17.7321 13.6089 17.7104 13.6077 17.6886 13.6053L15.4113 13.3549C15.0885 13.3194 14.8553 13.0289 14.8909 12.706C14.9263 12.3831 15.2169 12.1505 15.5398 12.1855L17.817 12.4359C18.1399 12.4715 18.3731 12.7619 18.3375 13.0848C18.3045 13.3859 18.0496 13.6089 17.7535 13.6089ZM13.1989 13.1082C13.1775 13.1082 13.1558 13.1069 13.134 13.1046L10.8567 12.8542C10.5338 12.8187 10.3007 12.5282 10.3363 12.2053C10.3717 11.8825 10.662 11.6499 10.9852 11.6848L13.2624 11.9352C13.5853 11.9708 13.8184 12.2612 13.7829 12.5841C13.7499 12.8852 13.495 13.1082 13.1989 13.1082ZM8.64431 12.6074C8.62291 12.6074 8.60119 12.6062 8.57939 12.6038L6.30213 12.3534C5.97924 12.3179 5.74611 12.0274 5.78166 11.7045C5.8172 11.3817 6.10752 11.1492 6.43056 11.1841L8.70783 11.4344C9.0308 11.47 9.26384 11.7605 9.2283 12.0834C9.19525 12.3845 8.94033 12.6074 8.64431 12.6074Z" fill="url(#paint9_linear_349_290)"/>
<path d="M5.38571 35.149C5.36102 35.149 5.33602 35.1474 5.31079 35.1442L4.14368 34.9959C3.82141 34.9549 3.59321 34.6604 3.6343 34.3381C3.67524 34.0159 3.96977 33.7879 4.29204 33.8288L5.45915 33.9771C5.78141 34.018 6.00962 34.3126 5.96852 34.6348C5.93071 34.932 5.67743 35.149 5.38571 35.149Z" fill="url(#paint10_linear_349_290)"/>
<path d="M26.9975 4.38031L23.2329 6.42891C22.7425 6.6957 22.1286 6.51453 21.8618 6.02414C21.595 5.53375 21.7761 4.91992 22.2665 4.65305L26.0313 2.60453C26.5217 2.33773 27.1355 2.51891 27.4024 3.0093C27.6692 3.49961 27.488 4.11351 26.9975 4.38031Z" fill="#61DB99"/>
<path d="M33.8496 28.4235L30.1136 24.6875C29.5865 24.1135 28.83 23.7535 27.9893 23.7535C26.3967 23.7535 25.1056 25.0447 25.1056 26.6373C25.1056 27.478 25.4656 28.2345 26.0396 28.7615L33.8497 36.5716V28.4235H33.8496Z" fill="url(#paint11_linear_349_290)"/>
<path d="M27.9891 29.5206C29.5817 29.5206 30.8728 28.2295 30.8728 26.6369C30.8728 25.0442 29.5817 23.7531 27.9891 23.7531C26.3964 23.7531 25.1053 25.0442 25.1053 26.6369C25.1053 28.2295 26.3964 29.5206 27.9891 29.5206Z" fill="url(#paint12_linear_349_290)"/>
<path d="M27.9891 28.627C29.0882 28.627 29.9792 27.736 29.9792 26.6369C29.9792 25.5377 29.0882 24.6467 27.9891 24.6467C26.8899 24.6467 25.9989 25.5377 25.9989 26.6369C25.9989 27.736 26.8899 28.627 27.9891 28.627Z" fill="url(#paint13_linear_349_290)"/>
<path d="M27.233 26.2927C27.4604 26.2927 27.6448 26.1083 27.6448 25.8809C27.6448 25.6534 27.4604 25.4691 27.233 25.4691C27.0055 25.4691 26.8212 25.6534 26.8212 25.8809C26.8212 26.1083 27.0055 26.2927 27.233 26.2927Z" fill="url(#paint14_linear_349_290)"/>
<path d="M28.7452 26.2927C28.9726 26.2927 29.157 26.1083 29.157 25.8809C29.157 25.6534 28.9726 25.4691 28.7452 25.4691C28.5177 25.4691 28.3334 25.6534 28.3334 25.8809C28.3334 26.1083 28.5177 26.2927 28.7452 26.2927Z" fill="url(#paint15_linear_349_290)"/>
<path d="M27.233 27.8055C27.4604 27.8055 27.6448 27.6212 27.6448 27.3937C27.6448 27.1663 27.4604 26.9819 27.233 26.9819C27.0055 26.9819 26.8212 27.1663 26.8212 27.3937C26.8212 27.6212 27.0055 27.8055 27.233 27.8055Z" fill="url(#paint16_linear_349_290)"/>
<path d="M28.7452 27.8055C28.9726 27.8055 29.157 27.6212 29.157 27.3937C29.157 27.1663 28.9726 26.9819 28.7452 26.9819C28.5177 26.9819 28.3334 27.1663 28.3334 27.3937C28.3334 27.6212 28.5177 27.8055 28.7452 27.8055Z" fill="url(#paint17_linear_349_290)"/>
</g>
<defs>
<linearGradient id="paint0_linear_349_290" x1="20.5949" y1="3.57526" x2="20.3823" y2="9.80697" gradientUnits="userSpaceOnUse">
<stop stop-color="#FFB92D"/>
<stop offset="1" stop-color="#F59500"/>
</linearGradient>
<linearGradient id="paint1_linear_349_290" x1="21.614" y1="7.71293" x2="21.0352" y2="12.4869" gradientUnits="userSpaceOnUse">
<stop stop-color="#FFB92D"/>
<stop offset="1" stop-color="#F59500"/>
</linearGradient>
<linearGradient id="paint2_linear_349_290" x1="19.7785" y1="7.85406" x2="19.7785" y2="11.4908" gradientUnits="userSpaceOnUse">
<stop stop-color="#A7F3CE"/>
<stop offset="1" stop-color="#61DB99"/>
</linearGradient>
<linearGradient id="paint3_linear_349_290" x1="19.9996" y1="14.1496" x2="19.9996" y2="24.3549" gradientUnits="userSpaceOnUse">
<stop stop-color="#FF4C54"/>
<stop offset="1" stop-color="#BE3F45"/>
</linearGradient>
<linearGradient id="paint4_linear_349_290" x1="19.9996" y1="21.7275" x2="19.9996" y2="37.4887" gradientUnits="userSpaceOnUse">
<stop stop-color="#FF4C54"/>
<stop offset="1" stop-color="#BE3F45"/>
</linearGradient>
<linearGradient id="paint5_linear_349_290" x1="36.1303" y1="24.9509" x2="33.4746" y2="24.9509" gradientUnits="userSpaceOnUse">
<stop stop-color="#BE3F45" stop-opacity="0"/>
<stop offset="1" stop-color="#BE3F45"/>
</linearGradient>
<linearGradient id="paint6_linear_349_290" x1="12.3797" y1="22.2246" x2="25.8892" y2="28.4563" gradientUnits="userSpaceOnUse">
<stop stop-color="#FFB92D"/>
<stop offset="1" stop-color="#F59500"/>
</linearGradient>
<linearGradient id="paint7_linear_349_290" x1="17.3935" y1="36.0998" x2="16.8351" y2="40.3679" gradientUnits="userSpaceOnUse">
<stop stop-color="#BE3F45" stop-opacity="0"/>
<stop offset="1" stop-color="#BE3F45"/>
</linearGradient>
<linearGradient id="paint8_linear_349_290" x1="3.50438" y1="10.8022" x2="3.50438" y2="38.0964" gradientUnits="userSpaceOnUse">
<stop stop-color="#FFF465"/>
<stop offset="1" stop-color="#FFE600"/>
</linearGradient>
<linearGradient id="paint9_linear_349_290" x1="19.1943" y1="10.803" x2="19.1943" y2="38.0401" gradientUnits="userSpaceOnUse">
<stop stop-color="#FFF465"/>
<stop offset="1" stop-color="#FFE600"/>
</linearGradient>
<linearGradient id="paint10_linear_349_290" x1="4.80126" y1="10.8014" x2="4.80126" y2="38.095" gradientUnits="userSpaceOnUse">
<stop stop-color="#FFF465"/>
<stop offset="1" stop-color="#FFE600"/>
</linearGradient>
<linearGradient id="paint11_linear_349_290" x1="31.8377" y1="30.4866" x2="23.7563" y2="22.4052" gradientUnits="userSpaceOnUse">
<stop stop-color="#BE3F45" stop-opacity="0"/>
<stop offset="1" stop-color="#BE3F45"/>
</linearGradient>
<linearGradient id="paint12_linear_349_290" x1="27.9885" y1="24.827" x2="27.9885" y2="28.9971" gradientUnits="userSpaceOnUse">
<stop stop-color="#FF4C54"/>
<stop offset="1" stop-color="#BE3F45"/>
</linearGradient>
<linearGradient id="paint13_linear_349_290" x1="27.9884" y1="27.8866" x2="27.9884" y2="25.009" gradientUnits="userSpaceOnUse">
<stop stop-color="#FF4C54"/>
<stop offset="1" stop-color="#BE3F45"/>
</linearGradient>
<linearGradient id="paint14_linear_349_290" x1="23.3294" y1="8.64464" x2="24.1529" y2="12.2814" gradientUnits="userSpaceOnUse">
<stop stop-color="#A7F3CE"/>
<stop offset="1" stop-color="#61DB99"/>
</linearGradient>
<linearGradient id="paint15_linear_349_290" x1="24.8415" y1="8.64481" x2="25.665" y2="12.2816" gradientUnits="userSpaceOnUse">
<stop stop-color="#A7F3CE"/>
<stop offset="1" stop-color="#61DB99"/>
</linearGradient>
<linearGradient id="paint16_linear_349_290" x1="23.0035" y1="8.71839" x2="23.827" y2="12.3552" gradientUnits="userSpaceOnUse">
<stop stop-color="#A7F3CE"/>
<stop offset="1" stop-color="#61DB99"/>
</linearGradient>
<linearGradient id="paint17_linear_349_290" x1="24.5157" y1="8.71856" x2="25.3392" y2="12.3553" gradientUnits="userSpaceOnUse">
<stop stop-color="#A7F3CE"/>
<stop offset="1" stop-color="#61DB99"/>
</linearGradient>
<clipPath id="clip0_349_290">
<rect width="40" height="40" fill="white"/>
</clipPath>
</defs>
</svg>
