<svg width="17" height="16" viewBox="0 0 17 16" fill="none" xmlns="http://www.w3.org/2000/svg">
<path d="M15.4062 9H8V1.59375C8 1.3125 7.75 1.09375 7.5 1.09375C7.46875 1.09375 7.4375 1.09375 7.4375 1.09375C3.71875 1.625 0.875 4.875 1 8.78125C1.125 12.6562 4.34375 15.875 8.21875 16C8.3125 16 8.40625 16 8.5 16C12.2812 16 15.375 13.2188 15.9062 9.5625C15.9375 9.28125 15.6875 9 15.4062 9ZM8.5 14.5C8.40625 14.5 8.34375 14.5 8.28125 14.5C5.1875 14.4062 2.59375 11.8125 2.5 8.71875C2.40625 6.0625 4.0625 3.71875 6.5 2.875V10.5H14.125C13.3125 12.875 11.0625 14.5 8.5 14.5ZM10 0.03125C10 0.03125 10 0 9.96875 0C9.71875 0 9.5 0.25 9.5 0.53125V7.5H16.4688C16.75 7.5 17 7.28125 16.9688 7C16.7188 3.25 13.75 0.28125 10 0.03125Z" fill="#2992F0"/>
</svg>
